<mxfile host="app.diagrams.net" agent="Mozilla/5.0 (Windows NT 10.0; Win64; x64) AppleWebKit/537.36 (KHTML, like Gecko) Chrome/132.0.0.0 Safari/537.36" version="24.8.4">
  <diagram name="Page-1" id="XB9Myk6mbwk_fhf4OLpv">
    <mxGraphModel dx="1179" dy="732" grid="1" gridSize="10" guides="1" tooltips="1" connect="1" arrows="1" fold="1" page="1" pageScale="1" pageWidth="1654" pageHeight="1169" math="0" shadow="0">
      <root>
        <mxCell id="0" />
        <mxCell id="1" parent="0" />
        <mxCell id="JD_omW3eRAsnDOEbr7pA-3" value="" style="edgeStyle=orthogonalEdgeStyle;rounded=0;orthogonalLoop=1;jettySize=auto;html=1;" edge="1" parent="1" source="JD_omW3eRAsnDOEbr7pA-1" target="JD_omW3eRAsnDOEbr7pA-2">
          <mxGeometry relative="1" as="geometry" />
        </mxCell>
        <mxCell id="JD_omW3eRAsnDOEbr7pA-1" value="Historical Seismic&lt;div&gt;Datasets&lt;/div&gt;" style="rounded=1;whiteSpace=wrap;html=1;fillColor=#dae8fc;strokeColor=#6c8ebf;" vertex="1" parent="1">
          <mxGeometry x="120" y="300" width="120" height="60" as="geometry" />
        </mxCell>
        <mxCell id="JD_omW3eRAsnDOEbr7pA-5" value="" style="edgeStyle=orthogonalEdgeStyle;rounded=0;orthogonalLoop=1;jettySize=auto;html=1;" edge="1" parent="1" source="JD_omW3eRAsnDOEbr7pA-2" target="JD_omW3eRAsnDOEbr7pA-4">
          <mxGeometry relative="1" as="geometry" />
        </mxCell>
        <mxCell id="JD_omW3eRAsnDOEbr7pA-2" value="Data Preprocessing" style="rounded=1;whiteSpace=wrap;html=1;fillColor=#d5e8d4;strokeColor=#82b366;" vertex="1" parent="1">
          <mxGeometry x="280" y="300" width="120" height="60" as="geometry" />
        </mxCell>
        <mxCell id="JD_omW3eRAsnDOEbr7pA-7" value="" style="edgeStyle=orthogonalEdgeStyle;rounded=0;orthogonalLoop=1;jettySize=auto;html=1;" edge="1" parent="1" source="JD_omW3eRAsnDOEbr7pA-4" target="JD_omW3eRAsnDOEbr7pA-6">
          <mxGeometry relative="1" as="geometry" />
        </mxCell>
        <mxCell id="JD_omW3eRAsnDOEbr7pA-4" value="ML Model" style="whiteSpace=wrap;html=1;rounded=1;fillColor=#ffe6cc;strokeColor=#d79b00;" vertex="1" parent="1">
          <mxGeometry x="440" y="300" width="120" height="60" as="geometry" />
        </mxCell>
        <mxCell id="JD_omW3eRAsnDOEbr7pA-9" value="" style="edgeStyle=orthogonalEdgeStyle;rounded=0;orthogonalLoop=1;jettySize=auto;html=1;" edge="1" parent="1" source="JD_omW3eRAsnDOEbr7pA-6" target="JD_omW3eRAsnDOEbr7pA-8">
          <mxGeometry relative="1" as="geometry" />
        </mxCell>
        <mxCell id="JD_omW3eRAsnDOEbr7pA-6" value="Cloud&amp;nbsp;&lt;div&gt;Deployment&lt;/div&gt;" style="whiteSpace=wrap;html=1;rounded=1;fillColor=#f8cecc;strokeColor=#b85450;" vertex="1" parent="1">
          <mxGeometry x="600" y="300" width="120" height="60" as="geometry" />
        </mxCell>
        <mxCell id="JD_omW3eRAsnDOEbr7pA-8" value="User Interface" style="whiteSpace=wrap;html=1;rounded=1;fillColor=#fff2cc;strokeColor=#d6b656;" vertex="1" parent="1">
          <mxGeometry x="760" y="300" width="120" height="60" as="geometry" />
        </mxCell>
      </root>
    </mxGraphModel>
  </diagram>
</mxfile>
